<svg width="33" height="34" viewBox="0 0 33 34" fill="none" xmlns="http://www.w3.org/2000/svg">
<circle cx="16.5" cy="17.3828" r="16" stroke="#4B4544"/>
<path d="M17.8148 27.8795C17.8148 26.4478 17.8148 23.6797 17.8148 21.9945H20.8568C20.8716 21.9945 20.8858 21.9886 20.8963 21.9781C20.9067 21.9676 20.9126 21.9534 20.9126 21.9385V18.1797C20.9126 18.1649 20.9067 18.1506 20.8963 18.1402C20.8858 18.1297 20.8716 18.1238 20.8568 18.1238H17.8181C17.8181 16.9784 17.8181 17.1199 17.8181 16.4024C17.8189 16.0971 17.9401 15.8046 18.1551 15.5887C18.37 15.3729 18.6614 15.2512 18.9654 15.2504H20.9093V11.7549C20.9052 11.6599 20.8653 11.5701 20.7978 11.5035C20.7302 11.4369 20.64 11.3985 20.5454 11.3961H17.6607C16.6435 11.3961 15.668 11.8018 14.9487 12.524C14.2294 13.2462 13.8253 14.2257 13.8253 15.2471C13.8253 15.2471 13.786 15.8066 13.7565 18.1205H10.8062C10.7916 18.1205 10.7771 18.1234 10.7636 18.129C10.75 18.1346 10.7378 18.1429 10.7274 18.1533C10.7171 18.1636 10.7088 18.176 10.7032 18.1896C10.6976 18.2031 10.6948 18.2177 10.6948 18.2324V21.8793C10.6948 21.894 10.6976 21.9085 10.7032 21.9221C10.7088 21.9357 10.7171 21.948 10.7274 21.9584C10.7378 21.9688 10.75 21.977 10.7636 21.9827C10.7771 21.9883 10.7916 21.9912 10.8062 21.9912H13.7336V27.5866M13.7499 27.5965C11.3561 26.9461 9.26912 25.4651 7.85946 23.4164C6.4498 21.3678 5.80861 18.8839 6.0497 16.4056C6.28409 14.0054 7.33029 11.7582 9.01407 10.0382C10.6979 8.31826 12.9176 7.2293 15.3038 6.95269C16.7742 6.78177 18.264 6.92525 19.6753 7.3737C21.0865 7.82216 22.3873 8.56544 23.492 9.55467C24.5968 10.5439 25.4805 11.7567 26.0851 13.1133C26.6897 14.47 27.0015 15.9397 27 17.426C27.0017 19.9926 26.0699 22.4714 24.3798 24.3969C22.6897 26.3224 20.3575 27.562 17.8213 27.8828" stroke="#4B4544" stroke-linecap="round" stroke-linejoin="round"/>
</svg>
