<svg width="175" height="155" viewBox="0 0 175 155" fill="none" xmlns="http://www.w3.org/2000/svg">
<path d="M49.4793 88.6887L52.7811 88.6887L52.7811 88.6887L49.4793 88.6887ZM62.48 75.7644L62.4735 79.0662H62.48V75.7644ZM112.546 75.7644L112.546 79.0662L112.546 75.7644ZM135.845 110.856L139.147 110.858V110.856H135.845ZM115.197 126.091V129.392H118.499V126.091H115.197ZM59.7779 126.091H56.476V129.392H59.7779V126.091ZM39.1297 150.898H35.8278V154.2H39.1297V150.898ZM135.819 150.898V154.2H139.119L139.121 150.9L135.819 150.898ZM160.852 87.9268L164.154 87.9268L164.154 87.9233L160.852 87.9268ZM158.15 81.9852L160.325 79.5011L160.317 79.4938L158.15 81.9852ZM92.4326 24.8284L90.2646 27.3188L90.2657 27.3198L92.4326 24.8284ZM82.032 24.8284L84.1989 27.3198L84.2 27.3188L82.032 24.8284ZM16.3146 81.9852L14.1477 79.4938L14.1394 79.5011L16.3146 81.9852ZM13.6125 87.9268L10.3106 87.9233V87.9268H13.6125ZM165.414 72.7958C166.79 73.9929 168.876 73.8483 170.073 72.4727C171.27 71.0971 171.125 69.0115 169.75 67.8143L165.414 72.7958ZM93.2994 5.65784L95.467 3.16711C95.4634 3.16399 95.4598 3.16088 95.4562 3.15778L93.2994 5.65784ZM87.2578 3.41406L87.2578 0.112175L87.2578 3.41406ZM81.2163 5.65784L79.0594 3.15778C79.0559 3.16086 79.0523 3.16395 79.0488 3.16704L81.2163 5.65784ZM59.8288 24.2699H56.527C56.527 25.5638 57.2828 26.7385 58.4604 27.2748C59.638 27.8111 61.0203 27.6101 61.9964 26.7607L59.8288 24.2699ZM59.2935 13.58V10.2782V13.58ZM38.7218 42.5264L40.8884 45.018C41.6096 44.3909 42.0237 43.4821 42.0237 42.5264H38.7218ZM5.25147 67.2549C3.87537 68.4515 3.72985 70.537 4.92643 71.9131C6.12302 73.2892 8.20859 73.4347 9.58468 72.2382L5.25147 67.2549ZM175 147.596H0V154.2H175V147.596ZM52.7811 105.193V88.6887H46.1774V105.193H52.7811ZM52.7811 88.6887C52.7811 87.4252 53.0313 86.1738 53.5175 85.0061L47.4212 82.4675C46.6001 84.4392 46.1774 86.5534 46.1774 88.6887L52.7811 88.6887ZM53.5175 85.0061C54.0037 83.8385 54.7167 82.777 55.6165 81.8825L50.9607 77.1992C49.4453 78.7057 48.2423 80.4956 47.4212 82.4675L53.5175 85.0061ZM55.6165 81.8825C56.5163 80.988 57.585 80.2783 58.7616 79.7949L56.2519 73.6866C54.2741 74.4992 52.476 75.6928 50.9607 77.1992L55.6165 81.8825ZM58.7616 79.7949C59.9382 79.3114 61.1996 79.0637 62.4735 79.0662L62.4864 72.4625C60.3482 72.4583 58.2296 72.874 56.2519 73.6866L58.7616 79.7949ZM62.48 79.0662H112.546V72.4625H62.48V79.0662ZM112.546 79.0662C115.115 79.0662 117.577 80.0832 119.39 81.8892L124.051 77.2105C120.997 74.169 116.858 72.4625 112.546 72.4625L112.546 79.0662ZM119.39 81.8892C121.203 83.6948 122.219 86.1409 122.219 88.6887H128.823C128.823 84.381 127.105 80.2525 124.051 77.2105L119.39 81.8892ZM122.219 88.6887V105.193H128.823V88.6887H122.219ZM139.147 110.856C139.147 108.48 138.199 106.206 136.518 104.53L131.857 109.209C132.298 109.648 132.543 110.241 132.543 110.856H139.147ZM136.518 104.53C134.836 102.856 132.558 101.917 130.186 101.917V108.521C130.815 108.521 131.416 108.77 131.857 109.209L136.518 104.53ZM130.186 101.917H120.856V108.521H130.186V101.917ZM120.856 101.917C118.483 101.917 116.205 102.856 114.524 104.53L119.184 109.209C119.626 108.77 120.227 108.521 120.856 108.521V101.917ZM114.524 104.53C112.842 106.206 111.895 108.481 111.895 110.856H118.499C118.499 110.241 118.744 109.648 119.184 109.209L114.524 104.53ZM111.895 110.856V126.091H118.499V110.856H111.895ZM115.197 122.789H59.7779V129.392H115.197V122.789ZM63.0797 126.091V110.856H56.476V126.091H63.0797ZM63.0797 110.856C63.0797 108.481 62.1324 106.206 60.4505 104.53L55.7901 109.209C56.2309 109.648 56.476 110.241 56.476 110.856H63.0797ZM60.4505 104.53C58.7691 102.856 56.4913 101.917 54.1187 101.917V108.521C54.7479 108.521 55.3489 108.77 55.7901 109.209L60.4505 104.53ZM54.1187 101.917H44.7888V108.521H54.1187V101.917ZM44.7888 101.917C42.4161 101.917 40.1383 102.856 38.457 104.53L43.1174 109.209C43.5586 108.77 44.1596 108.521 44.7888 108.521V101.917ZM38.457 104.53C36.7751 106.206 35.8278 108.481 35.8278 110.856H42.4315C42.4315 110.241 42.6767 109.648 43.1174 109.209L38.457 104.53ZM35.8278 110.856V150.898H42.4315V110.856H35.8278ZM39.1297 154.2H135.819V147.596H39.1297V154.2ZM139.121 150.9L139.147 110.858L132.543 110.853L132.517 150.896L139.121 150.9ZM164.154 150.898V87.9268H157.55V150.898H164.154ZM164.154 87.9233C164.152 86.3278 163.81 84.7517 163.149 83.2994L157.138 86.0332C157.409 86.6299 157.55 87.2764 157.55 87.9302L164.154 87.9233ZM163.149 83.2994C162.489 81.8472 161.526 80.5525 160.325 79.5011L155.975 84.4693C156.47 84.9031 156.866 85.4364 157.138 86.0332L163.149 83.2994ZM160.317 79.4938L94.5995 22.337L90.2657 27.3198L155.983 84.4766L160.317 79.4938ZM94.6006 22.338C92.5582 20.56 89.9401 19.5822 87.2323 19.5822V26.1859C88.3497 26.1859 89.4269 26.5895 90.2646 27.3188L94.6006 22.338ZM87.2323 19.5822C84.5246 19.5822 81.9065 20.56 79.864 22.338L84.2 27.3188C85.0378 26.5895 86.115 26.1859 87.2323 26.1859V19.5822ZM79.8652 22.337L14.1478 79.4938L18.4815 84.4766L84.1989 27.3198L79.8652 22.337ZM14.1394 79.5011C12.9387 80.5525 11.9759 81.8473 11.3155 83.2994L17.3269 86.0332C17.5983 85.4364 17.9945 84.903 18.4899 84.4693L14.1394 79.5011ZM11.3155 83.2994C10.6551 84.7517 10.3123 86.3278 10.3106 87.9233L16.9144 87.9302C16.9151 87.2764 17.0555 86.6299 17.3269 86.0332L11.3155 83.2994ZM10.3106 87.9268V150.898H16.9144V87.9268H10.3106ZM169.75 67.8143L95.467 3.16711L91.1317 8.14858L165.414 72.7958L169.75 67.8143ZM95.4562 3.15778C93.1781 1.19236 90.2674 0.112175 87.2578 0.112175V6.71595C88.6866 6.71595 90.0657 7.22894 91.1425 8.15791L95.4562 3.15778ZM87.2578 0.112175C84.2483 0.112175 81.3376 1.19237 79.0594 3.15778L83.3732 8.15791C84.45 7.22892 85.829 6.71595 87.2578 6.71595L87.2578 0.112175ZM79.0488 3.16704L57.6613 21.7791L61.9964 26.7607L83.3839 8.14865L79.0488 3.16704ZM63.1307 24.2699V14.1132H56.527V24.2699H63.1307ZM63.1307 14.1132C63.1307 13.6066 63.0303 13.1066 62.8369 12.6414L56.7393 15.177C56.5996 14.8412 56.527 14.4797 56.527 14.1132H63.1307ZM62.8369 12.6414C62.6429 12.1749 62.359 11.7522 62.0023 11.3969L57.3419 16.0756C57.0846 15.8193 56.8795 15.5142 56.7393 15.177L62.8369 12.6414ZM62.0023 11.3969C61.6458 11.0418 61.2229 10.7603 60.7577 10.5684L58.239 16.6729C57.9038 16.5346 57.5989 16.3317 57.3419 16.0756L62.0023 11.3969ZM60.7577 10.5684C60.2935 10.3768 59.796 10.2782 59.2935 10.2782L59.2935 16.8819C58.9316 16.8819 58.5734 16.8109 58.239 16.6729L60.7577 10.5684ZM59.2935 10.2782H39.2571V16.8819H59.2935V10.2782ZM39.2571 10.2782C38.2428 10.2782 37.2684 10.6797 36.5484 11.3969L41.2088 16.0756C40.6895 16.5929 39.9874 16.8819 39.2571 16.8819V10.2782ZM36.5484 11.3969C35.828 12.1145 35.4199 13.0909 35.4199 14.1132H42.0237C42.0237 14.8526 41.7284 15.5581 41.2088 16.0756L36.5484 11.3969ZM35.4199 14.1132V42.5264H42.0237V14.1132H35.4199ZM36.5552 40.0347L5.25147 67.2549L9.58468 72.2382L40.8884 45.018L36.5552 40.0347Z" fill="white"/>
</svg>
